<svg xmlns="http://www.w3.org/2000/svg" viewBox="3119.576 -180.5 112.424 35.769"><defs><style>.cls-1{fill:#9ac661}</style></defs><g id="Group_96" data-name="Group 96" transform="translate(1285.576 121.5)"><g id="Group_48" data-name="Group 48" transform="translate(1850.052 -302)"><path id="Path_53" data-name="Path 53" class="cls-1" d="M50.905 26.059a8.384 8.384 0 0 1 2.559 6.223 8.61 8.61 0 0 1-2.559 6.223 8.384 8.384 0 0 1-6.223 2.559 8.61 8.61 0 0 1-6.223-2.559 8.384 8.384 0 0 1-2.559-6.223 8.61 8.61 0 0 1 2.559-6.223 8.294 8.294 0 0 1 6.223-2.559 8.61 8.61 0 0 1 6.223 2.559zm-9.422 3.082a4.346 4.346 0 0 0-1.338 3.2 4.541 4.541 0 0 0 1.338 3.2 4.346 4.346 0 0 0 3.2 1.338 4.541 4.541 0 0 0 3.2-1.338 4.346 4.346 0 0 0 1.338-3.2 4.541 4.541 0 0 0-1.338-3.2 4.494 4.494 0 0 0-6.4 0z" transform="translate(-35.9 -15.009)"/><path id="Path_54" data-name="Path 54" class="cls-1" d="M86.452 33.766a7.944 7.944 0 0 1-8.026 7.968 7.788 7.788 0 0 1-5.642-2.385 7.693 7.693 0 0 1-2.384-5.641V25.1h4.42v8.666a3.512 3.512 0 0 0 1.047 2.559 3.6 3.6 0 0 0 2.617 1.105 3.388 3.388 0 0 0 2.616-1.105 3.609 3.609 0 0 0 1.047-2.559V25.1h4.3z" transform="translate(-50.335 -15.678)"/><path id="Path_55" data-name="Path 55" class="cls-1" d="M104.9 32.457a8.422 8.422 0 0 1-.989-1.047 5.07 5.07 0 0 1-.814-2.792 5.164 5.164 0 0 1 5.118-5.118 5.075 5.075 0 0 1 3.257 1.163 5.216 5.216 0 0 1 1.745 2.966l-4.071.872q-.349-.872-1.047-.872a.875.875 0 0 0-.64.233.934.934 0 0 0-.291.64.88.88 0 0 0 .407.814 4.058 4.058 0 0 0 1.512.407 8.481 8.481 0 0 1 2.268.7 4.281 4.281 0 0 1 1.8 1.57 5.7 5.7 0 0 1 .931 3.2 5.583 5.583 0 0 1-1.745 4.129 5.676 5.676 0 0 1-4.129 1.745 5.554 5.554 0 0 1-3.839-1.454 5.748 5.748 0 0 1-1.977-3.548l4.071-.872a1.628 1.628 0 0 0 1.745 1.512 1.7 1.7 0 0 0 1.105-.465 1.589 1.589 0 0 0 .465-1.105 1.858 1.858 0 0 0-.174-.814 3.236 3.236 0 0 0-1.919-.872 7.48 7.48 0 0 1-2.789-.992z" transform="translate(-63.723 -15.009)"/><path id="Path_56" data-name="Path 56" class="cls-1" d="M127.6 13.437V8.9h4.362v4.537zm0 20.589v-15.7h4.362v15.7z" transform="translate(-74.267 -8.9)"/><path id="Path_57" data-name="Path 57" class="cls-1" d="M146.062 24.431a8.522 8.522 0 0 1 3.664-.931 7.768 7.768 0 0 1 5.7 2.326 7.677 7.677 0 0 1 2.326 5.7v8.666h-4.362v-8.666a3.744 3.744 0 0 0-1.047-2.617 3.6 3.6 0 0 0-2.617-1.105 3.55 3.55 0 0 0-2.734 1.047 4.224 4.224 0 0 0-.931 2.966v8.317H141.7v-15.7z" transform="translate(-80.166 -15.009)"/></g><g id="Group_49" data-name="Group 49" transform="translate(1853.484 -272.28)"><path id="Path_58" data-name="Path 58" class="cls-1" d="M46.86 65.26a2.966 2.966 0 1 1 0-4.188l-.7.7a2.036 2.036 0 1 0 0 2.908z" transform="translate(-41.8 -60.084)"/><path id="Path_59" data-name="Path 59" class="cls-1" d="M67.06 60.972a2.949 2.949 0 1 1-2.094-.872 2.952 2.952 0 0 1 2.094.872zm-3.606.7a2.108 2.108 0 1 0 1.454-.582 1.739 1.739 0 0 0-1.454.58z" transform="translate(-50.252 -60.042)"/><path id="Path_60" data-name="Path 60" class="cls-1" d="M87.706 60.233h.989v5.816l-3.606-3.664v3.431H84.1V60l3.606 3.664z" transform="translate(-59.498 -60)"/><path id="Path_61" data-name="Path 61" class="cls-1" d="M107.906 60.233h.989v5.816l-3.606-3.664v3.431h-.989V60l3.606 3.664z" transform="translate(-67.95 -60)"/><path id="Path_62" data-name="Path 62" class="cls-1" d="M125.389 61.389v1.338h1.8v.989h-1.8v1.338h2.21v.931h-3.2V60.4h3.2v.989z" transform="translate(-76.36 -60.167)"/><path id="Path_63" data-name="Path 63" class="cls-1" d="M146.96 65.26a2.966 2.966 0 1 1 0-4.188l-.7.7a2.036 2.036 0 1 0 0 2.908z" transform="translate(-83.682 -60.084)"/><path id="Path_64" data-name="Path 64" class="cls-1" d="M163.994 61.389v4.595h-.989v-4.595H161.9V60.4h3.2v.989z" transform="translate(-92.05 -60.167)"/></g><path id="Path_65" data-name="Path 65" class="cls-1" d="M184.912 39.418a8.487 8.487 0 0 1-4.071 1.047 8.61 8.61 0 0 1-6.223-2.559 8.707 8.707 0 0 1 0-12.446 8.384 8.384 0 0 1 6.222-2.56 8.487 8.487 0 0 1 4.129.931h4.246V40a9.665 9.665 0 0 1-2.85 6.979 9.759 9.759 0 0 1-13.842.058l3.024-3.082a5.341 5.341 0 0 0 7.735-.058 5.4 5.4 0 0 0 1.628-3.955zm-7.27-10.876a4.537 4.537 0 0 0 3.2 7.735 3.918 3.918 0 0 0 3.082-1.338 4.715 4.715 0 0 0 1.105-3.141 4.611 4.611 0 0 0-1.105-3.141 3.835 3.835 0 0 0-3.082-1.338 3.925 3.925 0 0 0-3.2 1.223z" transform="translate(1757.208 -316.758)"/><path id="Path_66" data-name="Path 66" class="cls-1" d="M18.885 34.025V23.556h-6.223v11.05H8.3V8.9h4.362v10.294h6.223V8.9h4.362v25.125zm-6.223-.465v.582a5.449 5.449 0 0 0 1.57 3.9 5.3 5.3 0 0 0 3.839 1.687 5.1 5.1 0 0 0 3.9-1.628l3.024 3.082a9.44 9.44 0 0 1-6.921 2.85 9.5 9.5 0 0 1-6.921-2.908A9.478 9.478 0 0 1 8.3 34.142l4.362-.582" transform="translate(1825.7 -310.9)"/></g></svg>